<svg width="17" height="17" viewBox="0 0 17 17" fill="none" xmlns="http://www.w3.org/2000/svg">
<path d="M11.2 0.480766C11.0886 0.191122 10.8103 0 10.5 0C10.1897 0 9.91139 0.191122 9.79999 0.480766L8.91602 2.77908C8.69072 3.36486 8.61992 3.53367 8.52308 3.66986C8.42591 3.80652 8.30652 3.92591 8.16986 4.02308C8.03367 4.11992 7.86486 4.19072 7.27908 4.41602L4.98077 5.29999C4.69112 5.41139 4.5 5.68967 4.5 6C4.5 6.31033 4.69112 6.58861 4.98077 6.70001L7.27908 7.58398C7.86486 7.80928 8.03367 7.88008 8.16986 7.97692C8.30652 8.07409 8.42591 8.19348 8.52308 8.33014C8.61992 8.46633 8.69072 8.63514 8.91602 9.22092L9.79999 11.5192C9.91139 11.8089 10.1897 12 10.5 12C10.8103 12 11.0886 11.8089 11.2 11.5192L12.084 9.22092C12.3093 8.63514 12.3801 8.46633 12.4769 8.33014C12.5741 8.19348 12.6935 8.07409 12.8301 7.97692C12.9663 7.88008 13.1351 7.80928 13.7209 7.58398L16.0192 6.70001C16.3089 6.58861 16.5 6.31033 16.5 6C16.5 5.68967 16.3089 5.41139 16.0192 5.29999L13.7209 4.41602C13.1351 4.19072 12.9663 4.11992 12.8301 4.02308C12.6935 3.92591 12.5741 3.80652 12.4769 3.66986C12.3801 3.53367 12.3093 3.36486 12.084 2.77908L11.2 0.480766Z" fill="url(#paint0_linear_35667_15799)"/>
<path d="M4.79582 8.66459C4.66878 8.4105 4.40908 8.25 4.125 8.25C3.84092 8.25 3.58122 8.4105 3.45418 8.66459L2.86584 9.84128C2.65397 10.265 2.58941 10.3869 2.51097 10.4887C2.43229 10.5908 2.34078 10.6823 2.23871 10.761C2.13694 10.8394 2.015 10.904 1.59128 11.1158L0.41459 11.7042C0.160502 11.8312 0 12.0909 0 12.375C0 12.6591 0.160502 12.9188 0.41459 13.0458L1.59128 13.6342C2.015 13.846 2.13694 13.9106 2.23871 13.989C2.34078 14.0677 2.43229 14.1592 2.51097 14.2613C2.58941 14.3631 2.65397 14.485 2.86584 14.9087L3.45418 16.0854C3.58122 16.3395 3.84092 16.5 4.125 16.5C4.40908 16.5 4.66878 16.3395 4.79582 16.0854L5.38416 14.9087C5.59603 14.485 5.66059 14.3631 5.73903 14.2613C5.81771 14.1592 5.90922 14.0677 6.01129 13.989C6.11306 13.9106 6.235 13.846 6.65872 13.6342L7.83541 13.0458C8.0895 12.9188 8.25 12.6591 8.25 12.375C8.25 12.0909 8.0895 11.8312 7.83541 11.7042L6.65872 11.1158C6.235 10.904 6.11306 10.8394 6.01129 10.761C5.90922 10.6823 5.81771 10.5908 5.73903 10.4887C5.66059 10.3869 5.59603 10.265 5.38416 9.84128L4.79582 8.66459Z" fill="url(#paint1_linear_35667_15799)"/>
<defs>
<linearGradient id="paint0_linear_35667_15799" x1="14.75" y1="0.25" x2="4.25" y2="14.75" gradientUnits="userSpaceOnUse">
<stop stop-color="#f5fdd9"/>
<stop offset="0.53" stop-color="#d9fc67"/>
<stop offset="1" stop-color="#ebfdb3"/>
</linearGradient>
<linearGradient id="paint1_linear_35667_15799" x1="14.75" y1="0.25" x2="4.25" y2="14.75" gradientUnits="userSpaceOnUse">
<stop stop-color="#f5fdd9"/>
<stop offset="0.53" stop-color="#d9fc67"/>
<stop offset="1" stop-color="#ebfdb3"/>
</linearGradient>
</defs>
</svg>
