<svg width="18" height="18" viewBox="0 0 18 18" fill="none" xmlns="http://www.w3.org/2000/svg">
<path d="M11.4304 16.7019H11.3329C8.00288 16.7019 6.39788 15.3894 6.12038 12.4494C6.09038 12.1419 6.31538 11.8644 6.63038 11.8344C6.93788 11.8044 7.21538 12.0369 7.24538 12.3444C7.46288 14.6994 8.57288 15.5769 11.3404 15.5769H11.4379C14.4904 15.5769 15.5704 14.4969 15.5704 11.4444V6.55437C15.5704 3.50187 14.4904 2.42188 11.4379 2.42188H11.3404C8.55788 2.42188 7.44788 3.31437 7.24538 5.71437C7.20788 6.02187 6.95288 6.25438 6.63038 6.22438C6.31538 6.20188 6.09038 5.92437 6.11288 5.61687C6.36788 2.63187 7.98038 1.29688 11.3329 1.29688H11.4304C15.1129 1.29688 16.6879 2.87187 16.6879 6.55437V11.4444C16.6879 15.1269 15.1129 16.7019 11.4304 16.7019Z" fill="white"/>
<path d="M11.16 9.5625H1.5C1.1925 9.5625 0.9375 9.3075 0.9375 9C0.9375 8.6925 1.1925 8.4375 1.5 8.4375H11.16C11.4675 8.4375 11.7225 8.6925 11.7225 9C11.7225 9.3075 11.475 9.5625 11.16 9.5625Z" fill="white"/>
<path d="M9.48641 12.0739C9.34391 12.0739 9.20141 12.0214 9.08891 11.9089C8.87141 11.6914 8.87141 11.3314 9.08891 11.1139L11.2039 8.99891L9.08891 6.88391C8.87141 6.66641 8.87141 6.30641 9.08891 6.08891C9.30641 5.87141 9.66641 5.87141 9.88391 6.08891L12.3964 8.60141C12.6139 8.81891 12.6139 9.17891 12.3964 9.39641L9.88391 11.9089C9.77141 12.0214 9.62891 12.0739 9.48641 12.0739Z" fill="white"/>
</svg>
